# xmcd
#
# Track frame offsets: 
#        150
#        15429
#        41022
#        62479
#        82981
#        93862
#        116807
#        135475
#        154018
#        174004
#        193764
#        216844
#        236626
#        254982
#        273937
#
# Disc length: 3967 seconds
#
# Revision: 2
# Processed by: cddbd v1.5.2PL0 Copyright (c) Steve Scherf et al.
# Submitted via: ExactAudioCopyFreeDBPlugin 1.0
#
DISCID=c50f7d0f
DTITLE=U.D.O. - Steelhammer
DYEAR=2013
DGENRE=Heavy Metal
TTITLE0=Steelhammer
TTITLE1=A Cry Of A Nation
TTITLE2=Metal Machine
TTITLE3=Basta Ya
TTITLE4=Heavy Rain
TTITLE5=Devil's Bite
TTITLE6=Death Ride
TTITLE7=King Of Mean
TTITLE8=Timekeeper
TTITLE9=Never Cross My Way
TTITLE10=Take My Medicine
TTITLE11=Shadows Come Alive (Bonus Track)
TTITLE12=Stay True
TTITLE13=When Love Becomes A Lie
TTITLE14=Book Of Faith
EXTD=
EXTT0=
EXTT1=
EXTT2=
EXTT3=
EXTT4=
EXTT5=
EXTT6=
EXTT7=
EXTT8=
EXTT9=
EXTT10=
EXTT11=
EXTT12=
EXTT13=
EXTT14=
PLAYORDER=
